<svg width="77" height="17" viewBox="0 0 77 17" fill="none" xmlns="http://www.w3.org/2000/svg">
<path d="M4.53835 16L0.37642 1.45455H3.7358L6.14347 11.5611H6.2642L8.92045 1.45455H11.7969L14.446 11.5824H14.5739L16.9815 1.45455H20.3409L16.179 16H13.1818L10.4119 6.49006H10.2983L7.53551 16H4.53835ZM25.1298 16.2131C24.0076 16.2131 23.0417 15.9858 22.232 15.5312C21.4271 15.072 20.8068 14.4233 20.3712 13.5852C19.9356 12.7424 19.7178 11.7457 19.7178 10.5952C19.7178 9.47301 19.9356 8.48816 20.3712 7.64062C20.8068 6.79309 21.42 6.13258 22.2107 5.65909C23.0062 5.18561 23.9389 4.94886 25.009 4.94886C25.7287 4.94886 26.3987 5.06487 27.019 5.29688C27.644 5.52415 28.1885 5.86742 28.6525 6.3267C29.1212 6.78598 29.4858 7.36364 29.7462 8.05966C30.0067 8.75095 30.1369 9.56061 30.1369 10.4886V11.3196H20.9252V9.4446H27.2888C27.2888 9.009 27.1942 8.62311 27.0048 8.28693C26.8154 7.95076 26.5526 7.68797 26.2164 7.49858C25.885 7.30445 25.4991 7.20739 25.0587 7.20739C24.5995 7.20739 24.1923 7.31392 23.8371 7.52699C23.4868 7.73532 23.2121 8.01705 23.0133 8.37216C22.8144 8.72254 22.7126 9.11316 22.7079 9.54403V11.3267C22.7079 11.8665 22.8073 12.3329 23.0062 12.7259C23.2098 13.1188 23.4962 13.4219 23.8656 13.6349C24.2349 13.848 24.6728 13.9545 25.1795 13.9545C25.5156 13.9545 25.8234 13.9072 26.1028 13.8125C26.3821 13.7178 26.6212 13.5758 26.8201 13.3864C27.019 13.197 27.1705 12.965 27.2746 12.6903L30.0729 12.875C29.9309 13.5473 29.6397 14.1345 29.1994 14.6364C28.7638 15.1335 28.2003 15.5218 27.509 15.8011C26.8225 16.0758 26.0294 16.2131 25.1298 16.2131ZM31.5681 16V1.45455H34.5937V6.9233H34.686C34.8186 6.62973 35.0103 6.33144 35.2613 6.02841C35.517 5.72064 35.8484 5.46496 36.2556 5.26136C36.6675 5.05303 37.1789 4.94886 37.7897 4.94886C38.5852 4.94886 39.3191 5.1572 39.9914 5.57386C40.6638 5.9858 41.2012 6.60843 41.6036 7.44176C42.0061 8.27036 42.2073 9.30966 42.2073 10.5597C42.2073 11.7765 42.0108 12.804 41.6178 13.642C41.2296 14.4754 40.6993 15.1075 40.0269 15.5384C39.3593 15.9645 38.6112 16.1776 37.7826 16.1776C37.1955 16.1776 36.696 16.0805 36.284 15.8864C35.8768 15.6922 35.543 15.4484 35.2826 15.1548C35.0222 14.8565 34.8233 14.5559 34.686 14.2528H34.5511V16H31.5681ZM34.5298 10.5455C34.5298 11.1941 34.6197 11.7599 34.7996 12.2429C34.9796 12.7259 35.24 13.1023 35.5809 13.3722C35.9218 13.6373 36.3361 13.7699 36.8238 13.7699C37.3162 13.7699 37.7329 13.6349 38.0738 13.3651C38.4147 13.0904 38.6728 12.7116 38.8479 12.2287C39.0279 11.741 39.1178 11.1799 39.1178 10.5455C39.1178 9.91572 39.0302 9.36174 38.855 8.88352C38.6799 8.4053 38.4218 8.03125 38.0809 7.76136C37.74 7.49148 37.321 7.35653 36.8238 7.35653C36.3314 7.35653 35.9147 7.48674 35.5738 7.74716C35.2376 8.00758 34.9796 8.37689 34.7996 8.85511C34.6197 9.33333 34.5298 9.89678 34.5298 10.5455ZM52.7028 8.2017L49.933 8.37216C49.8856 8.13542 49.7838 7.92235 49.6276 7.73295C49.4713 7.53883 49.2653 7.38494 49.0097 7.27131C48.7587 7.15294 48.4581 7.09375 48.1077 7.09375C47.6389 7.09375 47.2436 7.19318 46.9216 7.39205C46.5996 7.58617 46.4386 7.84659 46.4386 8.1733C46.4386 8.43371 46.5428 8.65388 46.7511 8.83381C46.9595 9.01373 47.317 9.15814 47.8236 9.26705L49.798 9.66477C50.8586 9.88258 51.6493 10.233 52.1702 10.7159C52.691 11.1989 52.9514 11.8333 52.9514 12.6193C52.9514 13.3343 52.7407 13.9616 52.3193 14.5014C51.9027 15.0412 51.3297 15.4626 50.6006 15.7656C49.8761 16.0639 49.0404 16.2131 48.0935 16.2131C46.6493 16.2131 45.4988 15.9124 44.6418 15.3111C43.7895 14.705 43.29 13.8812 43.1432 12.8395L46.119 12.6832C46.209 13.1236 46.4268 13.4598 46.7724 13.6918C47.1181 13.919 47.5608 14.0327 48.1006 14.0327C48.6309 14.0327 49.057 13.9309 49.379 13.7273C49.7057 13.5189 49.8714 13.2514 49.8761 12.9247C49.8714 12.6501 49.7554 12.4252 49.5281 12.25C49.3009 12.0701 48.9505 11.9328 48.477 11.8381L46.5878 11.4616C45.5224 11.2486 44.7294 10.8793 44.2085 10.3537C43.6924 9.82812 43.4344 9.15814 43.4344 8.34375C43.4344 7.64299 43.6238 7.0393 44.0026 6.53267C44.3861 6.02604 44.9235 5.63542 45.6148 5.3608C46.3108 5.08617 47.1252 4.94886 48.058 4.94886C49.4358 4.94886 50.5201 5.24006 51.3108 5.82244C52.1063 6.40483 52.5703 7.19792 52.7028 8.2017ZM54.2566 16V5.09091H57.2822V16H54.2566ZM55.7765 3.68466C55.3267 3.68466 54.9408 3.53551 54.6188 3.23722C54.3016 2.93419 54.143 2.57197 54.143 2.15057C54.143 1.7339 54.3016 1.37642 54.6188 1.07812C54.9408 0.775094 55.3267 0.623579 55.7765 0.623579C56.2263 0.623579 56.6098 0.775094 56.9271 1.07812C57.249 1.37642 57.41 1.7339 57.41 2.15057C57.41 2.57197 57.249 2.93419 56.9271 3.23722C56.6098 3.53551 56.2263 3.68466 55.7765 3.68466ZM64.9084 5.09091V7.36364H58.3388V5.09091H64.9084ZM59.8303 2.47727H62.8558V12.6477C62.8558 12.9271 62.8984 13.1449 62.9837 13.3011C63.0689 13.4527 63.1873 13.5592 63.3388 13.6207C63.495 13.6823 63.675 13.7131 63.8786 13.7131C64.0206 13.7131 64.1626 13.7012 64.3047 13.6776C64.4467 13.6491 64.5556 13.6278 64.6314 13.6136L65.1072 15.8651C64.9557 15.9124 64.7427 15.9669 64.468 16.0284C64.1934 16.0947 63.8596 16.1349 63.4666 16.1491C62.7375 16.1776 62.0982 16.0805 61.549 15.858C61.0045 15.6354 60.5807 15.2898 60.2777 14.821C59.9747 14.3523 59.8255 13.7604 59.8303 13.0455V2.47727ZM71.1337 16.2131C70.0115 16.2131 69.0456 15.9858 68.2359 15.5312C67.431 15.072 66.8107 14.4233 66.3751 13.5852C65.9395 12.7424 65.7217 11.7457 65.7217 10.5952C65.7217 9.47301 65.9395 8.48816 66.3751 7.64062C66.8107 6.79309 67.4239 6.13258 68.2146 5.65909C69.0101 5.18561 69.9429 4.94886 71.0129 4.94886C71.7326 4.94886 72.4026 5.06487 73.0229 5.29688C73.6479 5.52415 74.1924 5.86742 74.6564 6.3267C75.1251 6.78598 75.4897 7.36364 75.7501 8.05966C76.0106 8.75095 76.1408 9.56061 76.1408 10.4886V11.3196H66.9291V9.4446H73.2928C73.2928 9.009 73.1981 8.62311 73.0087 8.28693C72.8193 7.95076 72.5565 7.68797 72.2203 7.49858C71.8889 7.30445 71.503 7.20739 71.0626 7.20739C70.6034 7.20739 70.1962 7.31392 69.8411 7.52699C69.4907 7.73532 69.2161 8.01705 69.0172 8.37216C68.8183 8.72254 68.7165 9.11316 68.7118 9.54403V11.3267C68.7118 11.8665 68.8112 12.3329 69.0101 12.7259C69.2137 13.1188 69.5001 13.4219 69.8695 13.6349C70.2388 13.848 70.6768 13.9545 71.1834 13.9545C71.5196 13.9545 71.8273 13.9072 72.1067 13.8125C72.386 13.7178 72.6251 13.5758 72.824 13.3864C73.0229 13.197 73.1744 12.965 73.2786 12.6903L76.0768 12.875C75.9348 13.5473 75.6436 14.1345 75.2033 14.6364C74.7677 15.1335 74.2042 15.5218 73.5129 15.8011C72.8264 16.0758 72.0333 16.2131 71.1337 16.2131Z" fill="black"/>
</svg>
